<?xml version="1.0" encoding="utf-8"?>
<!-- Generator: Adobe Illustrator 18.1.1, SVG Export Plug-In . SVG Version: 6.00 Build 0)  -->
<svg version="1.0" id="Layer_1" xmlns="http://www.w3.org/2000/svg" xmlns:xlink="http://www.w3.org/1999/xlink" x="0px" y="0px"
	 viewBox="-70 71.5 857.1 857.1" enable-background="new -70 71.5 857.1 857.1" xml:space="preserve">
<path fill="#3399FF" d="M149.9,754.5c-3,3.3-6.7,2.8-11.2-1.7c-4.8-4.1-5.6-7.6-2.2-10.6c3-3.3,6.7-2.8,11.2,1.7
	C152.1,748,152.8,751.5,149.9,754.5z M126.4,720.4c3.3,4.5,3.3,8,0,10.6c-3,2.2-6.1,0.9-9.5-3.9s-3.3-8.2,0-10
	C120.3,714.5,123.4,715.6,126.4,720.4L126.4,720.4z M92.4,687c-1.9,2.6-4.3,3-7.3,1.1c-3.7-1.9-5-4.1-3.9-6.7
	c1.1-1.9,3.5-2.2,7.3-1.1C92.2,682.1,93.5,684.4,92.4,687z M109.7,705.9c-2.2,2.6-5.2,2-8.9-1.7c-3.3-4.1-3.7-7.1-1.1-8.9
	c2.2-2.2,5.2-1.7,8.9,1.7C111.9,701.1,112.3,704.1,109.7,705.9z M181.7,768.4c-1.5,4.5-5,5.6-10.6,3.3c-6.3-1.5-8.7-4.3-7.3-8.4
	s5-5.4,10.6-3.9C180.4,761.4,182.8,764.3,181.7,768.4z M216.8,771.2c0,4.1-3,6.1-8.9,6.1c-6.3,0.7-9.5-1.3-9.5-6.1
	c0-4.1,3-6.1,8.9-6.1C213.7,764.3,216.8,766.4,216.8,771.2z M249.2,765.6c0.7,3.7-1.9,6.3-7.8,7.8s-9.3,0-10-4.5s1.9-7.3,7.8-8.4
	C245.1,759.9,248.4,761.5,249.2,765.6z M787.1,232.2v535.7c0,44.3-15.7,82.1-47.2,113.6c-31.4,31.4-69.3,47.2-113.6,47.2h-125
	c-6,0-10.5-0.2-13.7-0.6c-3.2-0.4-6.8-1.3-10.9-2.8c-4.1-1.5-7.1-4.2-8.9-8.1c-1.9-3.9-2.8-9-2.8-15.3V768.4
	c0-36.1-9.7-62.5-29-79.2c21.2-2.2,40.3-5.6,57.2-10c16.9-4.5,34.4-11.7,52.5-21.8c18-10,33.1-22.4,45.2-37.1s21.9-34.2,29.6-58.6
	c7.6-24.4,11.4-52.4,11.4-84c0-45-14.7-83.3-44.1-114.9c13.8-33.9,12.3-71.8-4.5-113.8c-10.4-3.3-25.5-1.3-45.2,6.1
	c-19.7,7.4-36.8,15.6-51.3,24.6L465.7,293c-34.6-9.7-70.3-14.5-107.1-14.5S286,283.3,251.4,293c-6-4.1-13.9-9.1-23.7-15.1
	c-9.9-6-25.4-13.1-46.6-21.5s-37.2-10.9-48-7.5c-16.4,42-17.7,80-3.9,113.8c-29.4,31.6-44.1,69.9-44.1,114.9
	c0,31.6,3.8,59.5,11.4,83.7s17.4,43.7,29.3,58.6c11.9,14.9,26.9,27.3,44.9,37.4c18,10,35.5,17.3,52.5,21.8s36,7.8,57.2,10
	c-14.9,13.4-24,32.5-27.3,57.5c-7.8,3.7-16.2,6.5-25.1,8.4s-19.5,2.8-31.8,2.8c-12.3,0-24.5-4-36.5-12c-12.1-8-22.4-19.6-31-34.9
	c-7.1-11.9-16.1-21.6-27.1-29c-11-7.4-20.2-11.9-27.6-13.4l-11.2-1.7c-7.8,0-13.2,0.8-16.2,2.5c-3,1.7-3.9,3.8-2.8,6.4
	c1.1,2.6,2.8,5.2,5,7.8c2.2,2.6,4.7,4.8,7.3,6.7l3.9,2.8c8.2,3.7,16.3,10.8,24.3,21.2c8,10.4,13.9,19.9,17.6,28.5l5.6,12.8
	c4.8,14.1,13,25.6,24.6,34.3c11.5,8.7,24,14.3,37.4,16.7c13.4,2.4,26.3,3.7,38.8,3.9c12.5,0.2,22.8-0.5,31-2l12.8-2.2
	c0,14.1,0.1,33.3,0.3,57.5c0.2,24.2,0.3,36.8,0.3,37.9c0,8.2-2,14.4-6.1,18.7c-4.1,4.3-8.2,6.7-12.3,7.3s-10.2,0.8-18.4,0.8h-125
	c-44.3,0-82.1-15.7-113.6-47.2C-54.3,850-70,812.1-70,767.9V232.2c0-44.3,15.7-82.1,47.2-113.6S46.4,71.5,90.7,71.5h535.7
	c44.3,0,82.1,15.7,113.6,47.2C771.4,150.1,787.1,187.9,787.1,232.2L787.1,232.2z"/>
</svg>
