<?xml version="1.0" encoding="utf-8"?>
<!-- Generator: Adobe Illustrator 18.1.1, SVG Export Plug-In . SVG Version: 6.00 Build 0)  -->
<svg version="1.0" id="Layer_1" xmlns="http://www.w3.org/2000/svg" xmlns:xlink="http://www.w3.org/1999/xlink" x="0px" y="0px"
	 viewBox="-70 71.5 857.1 857.1" enable-background="new -70 71.5 857.1 857.1" xml:space="preserve">
<path fill="#3399FF" d="M644.2,340.4c-20.8,9.3-43.3,15.6-67.5,19c25.3-14.9,42.6-36.6,51.9-65.3c-24.2,14.1-49.1,23.6-74.8,28.5
	c-22.7-24.6-51.2-36.8-85.4-36.8c-32.4,0-60,11.4-82.9,34.3c-22.9,22.9-34.3,50.5-34.3,82.9c0,10.8,0.9,19.7,2.8,26.8
	c-48-2.6-93-14.7-135-36.3S141.3,343,111.9,307c-10.8,18.6-16.2,38.3-16.2,59.1c0,42.4,16.9,75,50.8,97.6
	c-17.5-0.4-36.1-5.2-55.8-14.5v1.1c0,27.9,9.3,52.7,27.9,74.5s41.5,35.2,68.6,40.5c-10.8,3-20.3,4.5-28.5,4.5
	c-4.8,0-12.1-0.7-21.8-2.2c7.8,23.4,21.7,42.8,41.6,58s42.5,23.1,67.8,23.4c-43.2,33.5-91.7,50.2-145.6,50.2c-9.7,0-19-0.6-27.9-1.7
	c55.1,35,114.9,52.5,179.7,52.5c41.7,0,80.7-6.6,117.2-19.8s67.7-30.9,93.7-53c26-22.1,48.5-47.6,67.2-76.4
	c18.8-28.8,32.7-59,41.8-90.4s13.7-62.8,13.7-94c0-6.7-0.2-11.7-0.6-15.1C609.1,384.5,628.6,364.3,644.2,340.4L644.2,340.4z
	 M787.1,232.2v535.7c0,44.3-15.7,82.1-47.2,113.6c-31.4,31.4-69.3,47.2-113.6,47.2H90.7c-44.3,0-82.1-15.7-113.6-47.2
	C-54.3,850-70,812.1-70,767.9V232.2c0-44.3,15.7-82.1,47.2-113.6S46.4,71.5,90.7,71.5h535.7c44.3,0,82.1,15.7,113.6,47.2
	S787.1,187.9,787.1,232.2L787.1,232.2z"/>
</svg>
